<?xml version="1.0" encoding="UTF-8" standalone="no"?>
<!-- Created with Inkscape (http://www.inkscape.org/) -->

<svg
   xmlns:dc="http://purl.org/dc/elements/1.1/"
   xmlns:cc="http://creativecommons.org/ns#"
   xmlns:rdf="http://www.w3.org/1999/02/22-rdf-syntax-ns#"
   xmlns:svg="http://www.w3.org/2000/svg"
   xmlns="http://www.w3.org/2000/svg"
   xmlns:sodipodi="http://sodipodi.sourceforge.net/DTD/sodipodi-0.dtd"
   xmlns:inkscape="http://www.inkscape.org/namespaces/inkscape"
   width="369"
   height="260"
   id="svg3003"
   version="1.1"
   inkscape:version="0.48.4 r9939"
   sodipodi:docname="Nuevo documento 3">
  <defs
     id="defs3005" />
  <sodipodi:namedview
     id="base"
     pagecolor="#ffffff"
     bordercolor="#666666"
     borderopacity="1.0"
     inkscape:pageopacity="0.0"
     inkscape:pageshadow="2"
     inkscape:zoom="1.979899"
     inkscape:cx="380.98685"
     inkscape:cy="89.050376"
     inkscape:document-units="px"
     inkscape:current-layer="layer1"
     showgrid="false"
     inkscape:window-width="1952"
     inkscape:window-height="1269"
     inkscape:window-x="500"
     inkscape:window-y="24"
     inkscape:window-maximized="0" />
  <metadata
     id="metadata3008">
    <rdf:RDF>
      <cc:Work
         rdf:about="">
        <dc:format>image/svg+xml</dc:format>
        <dc:type
           rdf:resource="http://purl.org/dc/dcmitype/StillImage" />
        <dc:title></dc:title>
      </cc:Work>
    </rdf:RDF>
  </metadata>
  <g
     inkscape:label="Capa 1"
     inkscape:groupmode="layer"
     id="layer1"
     transform="translate(0,-792.36218)">
    <path
       style="fill:#ffffff"
       d="m 180.95251,1051.3553 c -36.85976,-0.819 -67.69408,-2.2319 -98.957297,-4.5347 l -20.4573,-1.5068 -9.0427,-6.6763 c -4.97349,-3.6719 -11.7427,-8.7278 -15.0427,-11.2353 -3.3,-2.5074 -10.725,-8.1366 -16.5,-12.5092 -14.34905,-10.8646 -19.99999998,-16.27189 -19.99999998,-19.13729 0,-1.3021 0.60169998,-2.3343 1.36076998,-2.3343 0.74842,0 10.76092,1.566 22.25,3.48 24.52208,4.08519 54.18469,8.12409 66.88923,9.10769 4.95,0.3833 9.899997,1.0306 10.999997,1.4385 8.29934,3.0774 -50.380237,1.7616 -71.249997,-1.5977 -2.7805,-0.4475 -4.25,-0.3137 -4.25,0.387 0,1.208 13.51328,13.3451 27.62858,24.8149 l 9.40596,7.6431 18.73273,1.7841 c 21.862797,2.0821 50.629307,3.611 93.232727,4.955 44.89802,1.4164 58.31996,1.2969 62.78212,-0.5587 5.1298,-2.1332 12.50562,-9.6056 17.74771,-17.98 6.87809,-10.988 18.3046,-35.97279 17.03318,-37.24419 -0.25209,-0.2521 -4.41939,3.6461 -9.26068,8.6627 -9.84613,10.20279 -12.10057,11.07219 -16.48642,6.35759 -5.14873,-5.53459 -4.4403,-10.21489 3.53363,-23.34549 2.53691,-4.1774 6.85182,-9.6899 9.58868,-12.25 6.15608,-5.75825 9.61618,-6.16123 13.47957,-1.5698 2.46118,2.9249 2.69706,6.4301 0.26934,4.0024 -0.59792,-0.5979 -2.386,-1.0871 -3.97351,-1.0871 -8.44393,0 -26.91851,31.24519 -19.39285,32.79819 5.84602,1.2064 27.14752,-23.52929 29.36194,-34.09559 0.65219,-3.1121 2.89647,-3.3244 4.70943,-0.4456 0.8618,1.3685 0.48199,3.568 -1.71738,9.9453 -13.68309,39.67569 -28.14106,64.86459 -40.87268,71.20909 -5.90872,2.9444 -2.06394,2.8497 -61.80208,1.5225 z m 99.25,-21.9229 c -1.7875,-1.0899 -3.24977,-2.1007 -3.2495,-2.2463 0.006,-2.9953 8.50831,-19.5373 13.19537,-25.6718 1.01154,-1.324 1.61067,-3.12709 1.33139,-4.00699 -0.3309,-1.0426 1.20808,-3.0779 4.41808,-5.8429 4.88919,-4.2114 6.43107,-4.8033 9.47287,-3.636 2.29252,0.8797 1.94769,2.7051 -1.03305,5.4687 -5.93026,5.4981 -18.38516,26.50179 -18.38516,31.00419 0,1.8114 0.40302,2.0358 2.64551,1.473 3.27055,-0.8209 16.88475,-12.3726 28.83364,-24.4655 8.82537,-8.93179 10.98434,-10.22389 13.26757,-7.94069 0.8623,0.8623 0.32709,2.1645 -2.1578,5.25 -3.76274,4.67229 -7.76283,11.37659 -10.03676,16.82209 -1.36446,3.2675 -1.37083,3.6489 -0.0525,3.143 0.82521,-0.3167 1.50037,-1.0526 1.50037,-1.6354 0,-0.5828 0.24611,-0.8136 0.54691,-0.5128 0.80486,0.8049 -6.58761,13.8648 -8.19781,14.4827 -1.97758,0.7589 -4.3491,-1.5564 -4.3491,-4.246 0,-1.2677 1.48554,-5.155 3.30121,-8.6384 4.34939,-8.3444 5.01395,-10.1181 3.43734,-9.1744 -0.6812,0.4078 -5.06355,4.2332 -9.73855,8.501 -15.93011,14.5427 -18.41533,15.7348 -24.75,11.8725 z m 46.74298,0.4806 c -3.39495,-4.0907 2.61347,-15.987 13.77573,-27.2751 5.39406,-5.45489 7.84154,-7.26889 9.48979,-7.03359 3.062,0.4371 3.44496,3.4102 0.54153,4.2041 -3.06337,0.83759 -5.45818,2.97549 -11.09046,9.90039 -7.39906,9.0972 -10.99547,17.7126 -7.39394,17.7126 0.7236,0 4.8861,-3.4914 9.25,-7.7588 6.90241,-6.7497 9.97922,-10.6017 15.0808,-18.8807 0.92465,-1.50059 1.39956,-1.61769 2.45494,-0.6056 1.07435,1.0304 0.82835,2.6274 -1.37464,8.9239 -1.87546,5.3603 -2.3767,8.0381 -1.66511,8.8955 1.35474,1.6323 -3.12154,12.9257 -5.12328,12.9257 -2.26493,0 -2.27067,-4.0472 -0.0163,-11.4693 1.14288,-3.7626 2.07796,-7.1787 2.07796,-7.5912 0,-0.4125 -4.47502,3.8198 -9.94449,9.4052 -10.21806,10.4347 -13.23216,12.0573 -16.06253,8.6469 z M 121.8723,1012.7105 c -1.42435,-3.7464 -0.48406,-6.5035 2.85839,-8.3813 l 2.83408,-1.5922 0.22221,-19.40779 c 0.85981,-75.09609 11.23824,-153.59531 24.09564,-182.25204 3.80413,-8.4787 6.04997,-9.71937 12.19325,-6.7359 14.89495,7.2337 21.56632,17.04521 9.52899,14.01418 -5.43571,-1.36873 -8.42036,-0.008 -11.65669,5.31348 -4.8519,7.97832 -12.68619,40.13709 -16.91502,69.43404 -3.77038,26.12087 -5.18593,46.41271 -5.77808,82.82854 -0.51799,31.855 -0.40577,36.15939 0.9726,37.30329 1.67405,1.3894 4.98938,1.9377 31.22484,5.1647 20.09243,2.4713 25.48558,2.708 35.5,1.5575 6.90079,-0.7927 7.39148,-0.7301 6.14176,0.7843 -3.52298,4.2691 -24.50935,5.7592 -45.64176,3.2407 -7.7,-0.9177 -19.4,-1.9273 -26,-2.2437 -11.35882,-0.5446 -12.10179,-0.4615 -13.90499,1.5539 -2.56842,2.8708 -4.43534,2.6794 -5.67522,-0.5817 z m 112.58021,-34.98449 c -6.10339,-5.6346 -12.33272,-8.5597 -17.30645,-8.1264 -3.29824,0.2873 -3.72448,0.054 -3.98255,-2.1782 -0.44741,-3.87034 4.80795,-13.43184 7.60015,-13.82758 1.27113,-0.18016 2.51861,-0.86821 2.77218,-1.529 0.44461,-1.15864 -9.86726,-25.27911 -11.5333,-26.97752 -1.18618,-1.20922 -38.41536,-8.61528 -39.26577,-7.81119 -0.39365,0.37221 -0.9745,3.14466 -1.29076,6.16101 -3.6287,34.60853 -7.70069,52.98428 -11.7411,52.98428 -2.83339,0 -12.7524,-12.7122 -12.7524,-16.34345 0,-1.60113 0.51087,-1.78331 3.45303,-1.23136 2.90003,0.54405 3.69531,0.27803 4.96587,-1.6611 4.47689,-6.8326 8.37506,-41.2113 10.66024,-94.01471 1.13319,-26.18446 0.67216,-39.29874 -1.66983,-47.49939 -0.97901,-3.42807 2.96184,-2.94188 5.54364,0.68393 5.47177,7.68439 5.95377,15.37407 4.04485,64.53024 -0.57216,14.73365 -0.60182,25.3318 -0.0724,25.86126 1.28946,1.28946 30.18774,4.96138 31.18646,3.96266 0.45954,-0.45954 0.26246,-1.94986 -0.43797,-3.31182 -6.19037,-12.03709 -25.67389,-68.22144 -25.67389,-74.03557 0,-1.97595 0.88803,-3.43684 3.00578,-4.94482 3.92777,-2.79682 6.20486,-2.24383 7.36106,1.78761 1.47048,5.12729 14.56145,13.65687 32.63316,21.26254 12.44184,5.23628 14.3605,6.1763 17.85611,8.74828 4.97504,3.66051 6.44679,7.88136 4.73333,13.57478 -1.67524,5.5664 -8.31205,17.63091 -9.69893,17.63091 -0.64948,0 -0.76976,-2.45443 -0.336,-6.8564 0.96468,-9.79002 -0.48715,-12.33203 -10.80019,-18.91004 -27.87624,-17.78043 -31.44441,-19.8768 -32.32794,-18.99327 -1.48206,1.48205 13.8369,44.88349 21.27613,60.27919 2.60502,5.39119 3.14149,5.88868 7.79749,7.23108 7.58103,2.18572 7.84704,2.59109 7.0348,10.72028 -0.38628,3.86603 -0.73424,8.16747 -0.77323,9.55876 -0.0817,2.91512 5.69474,12.49524 15.44372,25.61306 4.06911,5.47525 6.79471,10.12835 6.79471,11.59995 0,3.1778 -5.49381,10.7692 -7.75627,10.7177 -0.95905,-0.022 -3.99373,-2.1169 -6.74373,-4.6557 z m -130.5,-3.6133 c 0,-1.2697 2.47719,-9.6468 5.50486,-18.61567 3.02768,-8.96887 5.78253,-18.66952 6.12189,-21.557 0.76595,-6.51699 -0.97935,-12.51865 -3.64046,-12.51865 -1.02223,0 -9.63466,2.925 -19.138727,6.5 -9.50407,3.575 -17.61592,6.5 -18.02633,6.5 -0.41041,0 -3.24893,0.93639 -6.30781,2.08086 -4.99754,1.86982 -6.06626,2.82874 -10.53751,9.45484 -2.73675,4.05569 -4.97591,7.82737 -4.97591,8.38151 0,0.62421 2.37786,0.81148 6.25,0.49222 6.6018,-0.54433 11.8666,0.44036 12.49905,2.33773 0.21664,0.6499 -1.25681,1.43421 -3.43484,1.82836 -5.74834,1.04025 -15.04043,5.5156 -23.40368,11.2718 -6.7958,4.6774 -7.99561,5.1527 -13.00731,5.1527 -3.03653,0 -6.33816,-0.5976 -7.33697,-1.3279 -1.68581,-1.2327 -1.46651,-1.643 3.05887,-5.7225 6.84423,-6.16993 17.34557,-17.00545 19.18329,-19.79376 0.84974,-1.28928 1.65734,-4.56598 1.79466,-7.28155 0.13732,-2.71557 1.09276,-6.38571 2.12318,-8.15586 1.60727,-2.76108 2.5078,-3.26039 6.33695,-3.51357 l 4.46344,-0.29513 10.60459,-15.20487 c 21.00919,-30.123 35.740167,-52.79944 37.325437,-57.45768 0.88854,-2.61095 2.24174,-5.87219 3.00712,-7.24719 1.24101,-2.22949 1.46668,-2.3065 2.08558,-0.7117 1.05478,2.71796 -0.37812,9.69409 -2.80691,13.66552 -1.19279,1.9504 -7.18057,11.19618 -13.306187,20.54618 -15.3648,23.45249 -28.43627,44.38493 -28.43627,45.53738 0,0.52943 0.5625,0.94707 1.25,0.92807 4.12085,-0.11385 35.021547,-10.07311 37.062507,-11.9452 0.44689,-0.40991 -0.80046,-2.45554 -2.77187,-4.54585 -1.97142,-2.09031 -3.85124,-4.86374 -4.17738,-6.16319 -1.14928,-4.5791 0.29142,-14.83953 3.06258,-21.81121 5.6212,-14.14183 14.95365,-31.68767 18.15179,-34.12701 6.51892,-4.97222 7.20234,-1.908 1.56545,7.01895 -7.55582,11.96588 -12.42879,25.01649 -12.42879,33.28631 0,5.72496 2.8563,11.09974 8.35961,15.73047 8.28726,6.97327 7.91004,15.27964 -1.94551,42.83939 -3.45562,9.66317 -4.01733,14.7519 -1.62839,14.7519 3.62443,0 1.08927,4.1432 -5.40004,8.8253 -5.2241,3.7693 -7.09996,3.9981 -7.09996,0.866 z"
       id="path3192"
       inkscape:connector-curvature="0" />
  </g>
</svg>
