<?xml version="1.0" encoding="UTF-8" standalone="no"?>
<!-- Created with Inkscape (http://www.inkscape.org/) -->

<svg
   xmlns:dc="http://purl.org/dc/elements/1.1/"
   xmlns:cc="http://creativecommons.org/ns#"
   xmlns:rdf="http://www.w3.org/1999/02/22-rdf-syntax-ns#"
   xmlns:svg="http://www.w3.org/2000/svg"
   xmlns="http://www.w3.org/2000/svg"
   xmlns:sodipodi="http://sodipodi.sourceforge.net/DTD/sodipodi-0.dtd"
   xmlns:inkscape="http://www.inkscape.org/namespaces/inkscape"
   width="60"
   height="43"
   id="svg3048"
   version="1.1"
   inkscape:version="0.48.4 r9939"
   sodipodi:docname="Nuevo documento 6">
  <defs
     id="defs3050" />
  <sodipodi:namedview
     id="base"
     pagecolor="#ffffff"
     bordercolor="#666666"
     borderopacity="1.0"
     inkscape:pageopacity="0.0"
     inkscape:pageshadow="2"
     inkscape:zoom="15.839192"
     inkscape:cx="39.674408"
     inkscape:cy="21.343531"
     inkscape:document-units="px"
     inkscape:current-layer="layer1"
     showgrid="false"
     inkscape:window-width="2495"
     inkscape:window-height="1416"
     inkscape:window-x="65"
     inkscape:window-y="24"
     inkscape:window-maximized="1" />
  <metadata
     id="metadata3053">
    <rdf:RDF>
      <cc:Work
         rdf:about="">
        <dc:format>image/svg+xml</dc:format>
        <dc:type
           rdf:resource="http://purl.org/dc/dcmitype/StillImage" />
        <dc:title></dc:title>
      </cc:Work>
    </rdf:RDF>
  </metadata>
  <g
     inkscape:label="Capa 1"
     inkscape:groupmode="layer"
     id="layer1"
     transform="translate(0,-1009.3622)">
    <path
       style="fill:#ffffff"
       d="m 30.061952,1051.5942 c -5.896284,-0.1319 -10.82871,-0.357 -15.829739,-0.7252 l -3.272462,-0.2404 -1.4465181,-1.0679 c -0.7955871,-0.5874 -1.8784237,-1.3962 -2.4063138,-1.7972 -0.5278851,-0.401 -1.7156288,-1.3016 -2.6394246,-2.001 -2.2953536,-1.738 -3.1993094,-2.6031 -3.1993094,-3.0612 0,-0.2082 0.096252,-0.3735 0.2176756,-0.3735 0.1197235,0 1.7213727,0.2492 3.5592307,0.5567 3.9226834,0.6534 8.6676736,1.2995 10.6999596,1.4569 0.791827,0.062 1.58366,0.1641 1.759618,0.2316 1.327611,0.4921 -8.059095,0.2814 -11.3975301,-0.2551 -0.444786,-0.07 -0.6798538,-0.05 -0.6798538,0.062 0,0.1935 2.1616574,2.1346 4.4196133,3.9697 l 1.5046306,1.2223 2.996589,0.2844 c 3.497289,0.333 8.098933,0.5778 14.914006,0.7926 7.182128,0.2258 9.329175,0.2082 10.042964,-0.091 0.82059,-0.3412 2.000469,-1.5367 2.83902,-2.8763 1.100256,-1.7577 2.928105,-5.7543 2.724717,-5.9577 -0.04031,-0.041 -0.706947,0.5833 -1.481389,1.3859 -1.575034,1.6319 -1.935671,1.7712 -2.637253,1.0169 -0.823619,-0.8853 -0.710298,-1.6342 0.565255,-3.7346 0.405821,-0.6683 1.096059,-1.5501 1.533858,-1.9596 0.98476,-0.921 1.538258,-0.9855 2.156263,-0.2521 0.393706,0.4678 0.431438,1.0286 0.04309,0.6402 -0.09565,-0.097 -0.381681,-0.1729 -0.635624,-0.1729 -1.350737,0 -4.306033,4.998 -3.102188,5.2465 0.935161,0.1935 4.342661,-3.7638 4.696893,-5.4541 0.104327,-0.498 0.463337,-0.5317 0.753347,-0.07 0.137863,0.2198 0.0771,0.5707 -0.274729,1.5911 -2.188819,6.3468 -4.501598,10.3759 -6.538214,11.3908 -0.945189,0.4711 -0.330156,0.4558 -9.88619,0.2433 z m 15.876561,-3.5068 c -0.285927,-0.1759 -0.519852,-0.3362 -0.51981,-0.3594 0.0011,-0.4793 1.361035,-3.1251 2.110803,-4.1066 0.161812,-0.211 0.257639,-0.5001 0.212965,-0.6411 -0.05291,-0.1671 0.193237,-0.4921 0.706739,-0.9345 0.782101,-0.6736 1.028748,-0.7683 1.515331,-0.5816 0.366722,0.1407 0.311562,0.4327 -0.165242,0.8747 -0.948637,0.8795 -2.940986,4.2394 -2.940986,4.9597 0,0.2902 0.06446,0.3256 0.423189,0.2345 0.523173,-0.1319 2.700973,-1.9793 4.612384,-3.9137 1.411754,-1.4288 1.757112,-1.6354 2.12235,-1.2702 0.137951,0.1378 0.05232,0.3462 -0.345173,0.8399 -0.601907,0.7472 -1.241784,1.8198 -1.605533,2.6907 -0.218271,0.5226 -0.219297,0.5839 -0.0085,0.503 0.132,-0.05 0.240022,-0.17 0.240022,-0.2609 0,-0.094 0.03937,-0.129 0.0875,-0.082 0.128747,0.129 -1.053788,2.2179 -1.311365,2.3167 -0.316343,0.1202 -0.695705,-0.2492 -0.695705,-0.6792 0,-0.2023 0.237647,-0.8246 0.52808,-1.3816 0.695751,-1.3349 0.802058,-1.6187 0.549854,-1.4677 -0.10896,0.064 -0.809991,0.6771 -1.557831,1.3599 -2.548265,2.3263 -2.945813,2.5168 -3.95914,1.8992 z m 7.477259,0.076 c -0.543077,-0.6543 0.418062,-2.5573 2.203637,-4.3631 0.862861,-0.8726 1.254377,-1.1628 1.518037,-1.125 0.489816,0.07 0.551074,0.5455 0.08662,0.6724 -0.490036,0.1349 -0.873124,0.4761 -1.774093,1.5839 -1.183595,1.4551 -1.758894,2.8331 -1.182774,2.8331 0.11576,0 0.781609,-0.5584 1.479682,-1.2408 1.104144,-1.0799 1.596326,-1.6961 2.412405,-3.0205 0.147917,-0.2404 0.22387,-0.258 0.392705,-0.097 0.171867,0.1641 0.132499,0.4203 -0.219883,1.4272 -0.300012,0.8578 -0.380194,1.286 -0.266374,1.4232 0.216717,0.2609 -0.499338,2.0675 -0.819544,2.0675 -0.362313,0 -0.363231,-0.6472 -0.0027,-1.8344 0.18283,-0.6021 0.332401,-1.1485 0.332401,-1.2145 0,-0.064 -0.715849,0.6112 -1.590776,1.5044 -1.634533,1.6694 -2.116684,1.9288 -2.569448,1.3833 z m -32.80461,-2.7517 c -0.227857,-0.5994 -0.07742,-1.0403 0.457246,-1.3408 l 0.453355,-0.255 0.03553,-3.1047 c 0.13754,-12.0128 1.797726,-24.5696 3.854463,-29.154 0.608531,-1.3561 0.967787,-1.5545 1.950501,-1.0773 2.382673,1.157 3.449863,2.7265 1.524309,2.2416 -0.869524,-0.2198 -1.346967,0 -1.864669,0.8501 -0.776136,1.2764 -2.029346,6.4206 -2.705813,11.107 -0.603135,4.1784 -0.829572,7.4243 -0.924297,13.2496 -0.08287,5.0959 -0.0649,5.7845 0.155598,5.9674 0.267782,0.2228 0.798124,0.3099 4.994896,0.8261 3.214087,0.3954 4.076805,0.4332 5.678767,0.2491 1.103889,-0.126 1.182379,-0.1172 0.982471,0.1261 -0.563556,0.683 -3.920651,0.9213 -7.301102,0.5185 -1.231735,-0.1465 -3.103332,-0.3083 -4.159101,-0.359 -1.817018,-0.088 -1.935865,-0.073 -2.224319,0.2491 -0.410856,0.4594 -0.709497,0.4286 -0.90784,-0.094 z m 18.008938,-5.5963 c -0.976335,-0.9014 -1.972809,-1.3692 -2.768433,-1.3001 -0.527608,0.047 -0.595789,0 -0.637069,-0.3482 -0.07158,-0.6194 0.769101,-2.1487 1.215759,-2.212 0.203321,-0.029 0.402886,-0.1378 0.443454,-0.2433 0.07111,-0.1847 -1.578424,-4.0436 -1.844933,-4.3153 -0.189749,-0.1935 -6.145122,-1.3784 -6.281161,-1.2497 -0.06297,0.059 -0.155891,0.5031 -0.206487,0.9856 -0.580465,5.5362 -1.231845,8.4758 -1.878174,8.4758 -0.453241,0 -2.039937,-2.0335 -2.039937,-2.6145 0,-0.2551 0.08173,-0.2844 0.552366,-0.1964 0.4639,0.088 0.591122,0.044 0.794364,-0.2668 0.716148,-1.0931 1.339718,-6.5924 1.70527,-15.0392 0.181277,-4.1886 0.107523,-6.2863 -0.267107,-7.5981 -0.156624,-0.5485 0.473787,-0.4708 0.886787,0.1085 0.875292,1.2291 0.952396,2.4594 0.647037,10.3225 -0.09152,2.3569 -0.09627,4.0521 -0.01143,4.1368 0.206282,0.2052 4.828993,0.7938 4.988753,0.6341 0.07352,-0.073 0.04198,-0.3119 -0.07006,-0.5297 -0.990242,-1.9257 -4.106934,-10.9133 -4.106934,-11.8434 0,-0.316 0.142055,-0.5496 0.48082,-0.7909 0.628309,-0.4473 0.992563,-0.3591 1.177519,0.2873 0.235214,0.8202 2.329326,2.1847 5.22017,3.4015 1.990265,0.8375 2.297184,0.9879 2.85636,1.3992 0.795838,0.5857 1.031263,1.2608 0.75717,2.1716 -0.267987,0.8905 -1.329637,2.8202 -1.551493,2.8202 -0.103888,0 -0.123118,-0.3925 -0.05373,-1.0966 0.154308,-1.5662 -0.07795,-1.9728 -1.72766,-3.0249 -4.459228,-2.8443 -5.030015,-3.1796 -5.171349,-3.0384 -0.23709,0.2375 2.213429,7.1799 3.403444,9.6425 0.416716,0.8625 0.50253,0.9422 1.247327,1.1568 1.212704,0.3497 1.255259,0.4145 1.125328,1.7148 -0.06179,0.6185 -0.117461,1.3065 -0.123704,1.5293 -0.01319,0.4661 0.910959,1.9986 2.47046,4.0972 0.65092,0.8756 1.086922,1.6202 1.086922,1.8556 0,0.5083 -0.87882,1.7225 -1.240737,1.7143 -0.1534,0 -0.63886,-0.3386 -1.078761,-0.7446 z m -20.875483,-0.5781 c 0,-0.2022 0.396268,-1.543 0.88059,-2.9779 0.484322,-1.4347 0.925001,-2.9865 0.97929,-3.4482 0.122523,-1.0427 -0.156662,-2.0027 -0.582349,-2.0027 -0.163522,0 -1.541212,0.4678 -3.061533,1.0397 -1.520321,0.5719 -2.817937,1.0398 -2.883591,1.0398 -0.06565,0 -0.519714,0.1495 -1.009028,0.333 -0.799433,0.299 -0.970393,0.4526 -1.685639,1.5123 -0.4377835,0.649 -0.7959717,1.2523 -0.7959717,1.3408 0,0.1 0.380375,0.129 0.9997807,0.079 1.056063,-0.088 1.898248,0.07 1.999416,0.3741 0.03467,0.1026 -0.201046,0.2286 -0.549453,0.2931 -0.919534,0.1671 -2.4059515,0.8824 -3.7437811,1.8031 -1.0870926,0.7484 -1.2790187,0.8243 -2.0807181,0.8243 -0.4857406,0 -1.0138869,-0.097 -1.1736581,-0.211 -0.2696755,-0.1964 -0.2345927,-0.2639 0.4893087,-0.9152 1.094842,-0.987 2.7746942,-2.7203 3.0686635,-3.1665 0.1359311,-0.2052 0.2651171,-0.7302 0.2870849,-1.1646 0.021985,-0.4345 0.1748071,-1.0216 0.3396335,-1.3048 0.2571115,-0.4418 0.4011644,-0.5215 1.0136947,-0.5619 l 0.713998,-0.047 1.696364,-2.4322 c 3.360745,-4.8189 5.717192,-8.4462 5.970777,-9.1914 0.14214,-0.4177 0.358605,-0.9395 0.481037,-1.1593 0.198519,-0.3568 0.234619,-0.3691 0.333623,-0.1143 0.168727,0.4347 -0.06049,1.5507 -0.44901,2.1859 -0.190807,0.3119 -1.148645,1.7911 -2.128532,3.2867 -2.457834,3.7515 -4.548819,7.1001 -4.548819,7.2844 0,0.085 0.08999,0.1525 0.199959,0.1495 0.659192,-0.029 5.602236,-1.6113 5.928718,-1.9106 0.07149,-0.064 -0.128043,-0.3928 -0.443405,-0.7273 -0.315356,-0.3345 -0.616061,-0.778 -0.668232,-0.9858 -0.183845,-0.7326 0.04661,-2.3739 0.489906,-3.4893 0.899198,-2.2621 2.392064,-5.0689 2.903654,-5.4591 1.042805,-0.7953 1.152128,-0.3051 0.250428,1.1227 -1.208664,1.9142 -1.988173,4.002 -1.988173,5.3249 0,0.9158 0.456909,1.7755 1.337248,2.5163 1.325674,1.1154 1.265334,2.4442 -0.311213,6.8527 -0.55278,1.546 -0.642636,2.36 -0.260483,2.36 0.579787,0 0.174242,0.6625 -0.86382,1.4115 -0.835673,0.603 -1.135749,0.6396 -1.135749,0.1378 z"
       id="path3192"
       inkscape:connector-curvature="0" />
  </g>
</svg>
