<?xml version="1.0" encoding="UTF-8" standalone="no"?>
<!-- Created with Inkscape (http://www.inkscape.org/) -->

<svg
   xmlns:dc="http://purl.org/dc/elements/1.1/"
   xmlns:cc="http://creativecommons.org/ns#"
   xmlns:rdf="http://www.w3.org/1999/02/22-rdf-syntax-ns#"
   xmlns:svg="http://www.w3.org/2000/svg"
   xmlns="http://www.w3.org/2000/svg"
   xmlns:sodipodi="http://sodipodi.sourceforge.net/DTD/sodipodi-0.dtd"
   xmlns:inkscape="http://www.inkscape.org/namespaces/inkscape"
   width="275"
   height="201"
   id="svg3003"
   version="1.1"
   inkscape:version="0.48.4 r9939"
   sodipodi:docname="logo.svg">
  <defs
     id="defs3005" />
  <sodipodi:namedview
     id="base"
     pagecolor="#ffffff"
     bordercolor="#666666"
     borderopacity="1.0"
     inkscape:pageopacity="0.0"
     inkscape:pageshadow="2"
     inkscape:zoom="1.979899"
     inkscape:cx="380.98685"
     inkscape:cy="89.050376"
     inkscape:document-units="px"
     inkscape:current-layer="layer1"
     showgrid="false"
     inkscape:window-width="1952"
     inkscape:window-height="1269"
     inkscape:window-x="500"
     inkscape:window-y="34"
     inkscape:window-maximized="0" />
  <metadata
     id="metadata3008">
    <rdf:RDF>
      <cc:Work
         rdf:about="">
        <dc:format>image/svg+xml</dc:format>
        <dc:type
           rdf:resource="http://purl.org/dc/dcmitype/StillImage" />
        <dc:title />
      </cc:Work>
    </rdf:RDF>
  </metadata>
  <g
     inkscape:label="Capa 1"
     inkscape:groupmode="layer"
     id="layer1"
     transform="translate(0,-851.36218)">
    <path
       style="fill:#ffffff"
       d="m 138.14769,1049.0457 c -27.88749,-0.6197 -51.216222,-1.6886 -74.869456,-3.4309 l -15.477655,-1.14 -6.841558,-5.0512 c -3.76286,-2.7781 -8.884332,-6.6033 -11.381058,-8.5004 -2.496725,-1.8971 -8.114358,-6.1561 -12.483627,-9.4643 -10.8562551,-8.22 -15.1316704,-12.311 -15.1316704,-14.479 0,-0.9851 0.4552362,-1.766 1.029536,-1.766 0.5662422,0 8.1415344,1.1848 16.8339834,2.6329 18.553,3.0908 40.995241,6.1465 50.607286,6.8907 3.745088,0.29 7.490174,0.7797 8.322416,1.0883 6.279144,2.3283 -38.116855,1.3328 -53.906571,-1.2088 -2.10368,-0.3385 -3.215479,-0.2373 -3.215479,0.2928 0,0.914 10.223924,10.0967 20.903327,18.7746 l 7.116394,5.7826 14.172874,1.3498 c 16.541031,1.5753 38.305298,2.7321 70.538338,3.7489 33.9691,1.0716 44.12392,0.9812 47.49991,-0.4227 3.88113,-1.6139 9.46155,-7.2674 13.42763,-13.6034 5.20385,-8.3133 13.84896,-27.2164 12.88702,-28.1783 -0.19073,-0.1907 -3.34364,2.7586 -7.00648,6.5541 -7.44942,7.7192 -9.15509,8.377 -12.47335,4.81 -3.89544,-4.1874 -3.35946,-7.7284 2.67349,-17.66278 1.91938,-3.16055 5.18397,-7.33122 7.25463,-9.26815 4.65759,-4.3566 7.27545,-4.66148 10.19842,-1.18768 1.86209,2.21293 2.04056,4.8649 0.20378,3.02815 -0.45237,-0.45237 -1.80521,-0.82249 -3.00629,-0.82249 -6.38854,0 -20.3661,23.63955 -14.67231,24.81455 4.423,0.9127 20.53937,-17.80185 22.21476,-25.79614 0.49344,-2.35456 2.19142,-2.51518 3.56308,-0.33713 0.65202,1.03538 0.36466,2.69949 -1.29935,7.52445 -10.3524,30.01792 -21.29106,49.07542 -30.92359,53.87562 -4.47044,2.2277 -1.56154,2.156 -46.75843,1.1519 z m 75.09091,-16.5865 c -1.35239,-0.8246 -2.45872,-1.5894 -2.45852,-1.6995 0.005,-2.2662 6.43725,-14.7816 9.9834,-19.4229 0.76531,-1.0017 1.21861,-2.3659 1.00731,-3.0316 -0.25036,-0.7888 0.91401,-2.3287 3.34264,-4.4207 3.69908,-3.1862 4.86564,-3.6341 7.16702,-2.7509 1.73448,0.6656 1.47359,2.0466 -0.78159,4.1375 -4.48674,4.1598 -13.90991,20.0508 -13.90991,23.4573 0,1.3705 0.30492,1.5402 2.00155,1.1144 2.47445,-0.621 12.77473,-9.3609 21.81506,-18.5102 6.67713,-6.7576 8.31057,-7.7352 10.03802,-6.0078 0.6524,0.6524 0.24747,1.6377 -1.63255,3.9721 -2.84683,3.535 -5.87323,8.6073 -7.59365,12.7273 -1.03233,2.4722 -1.03715,2.7607 -0.0397,2.378 0.62434,-0.2396 1.13515,-0.7964 1.13515,-1.2374 0,-0.4409 0.18621,-0.6155 0.41379,-0.3879 0.60894,0.6089 -4.98408,10.4899 -6.20233,10.9573 -1.4962,0.5742 -3.29046,-1.1775 -3.29046,-3.2124 0,-0.9591 1.12394,-3.9002 2.49764,-6.5357 3.29068,-6.3132 3.79348,-7.6552 2.60064,-6.9412 -0.51539,0.3086 -3.831,3.2028 -7.36803,6.4317 -12.05246,11.0028 -13.93273,11.9047 -18.72544,8.9826 z m 35.36496,0.3636 c -2.56856,-3.095 1.97731,-12.0955 10.42249,-20.6359 4.08106,-4.1271 5.93278,-5.4995 7.17982,-5.3215 2.31666,0.3307 2.6064,2.5801 0.40972,3.1808 -2.3177,0.6337 -4.12957,2.2512 -8.39086,7.4904 -5.59801,6.8828 -8.31899,13.4011 -5.59414,13.4011 0.54747,0 3.69675,-2.6416 6.9984,-5.8702 5.22225,-5.1067 7.55011,-8.0211 11.40989,-14.2848 0.69957,-1.1353 1.05888,-1.2239 1.85736,-0.4582 0.81284,0.7796 0.62672,1.9878 -1.04003,6.7517 -1.41894,4.0555 -1.79817,6.0815 -1.25979,6.7302 1.02497,1.2349 -2.36171,9.7793 -3.87619,9.7793 -1.71361,0 -1.71795,-3.062 -0.0123,-8.6775 0.86468,-2.8467 1.57215,-5.4312 1.57215,-5.7433 0,-0.3121 -3.38573,2.89 -7.52384,7.1158 -7.73082,7.8947 -10.01123,9.1223 -12.15265,6.5421 z M 93.448579,1019.8077 c -1.077639,-2.8345 -0.366231,-4.9205 2.162611,-6.3412 l 2.144218,-1.2046 0.168121,-14.68358 c 0.650518,-56.8165 8.502661,-116.20771 18.230361,-137.88892 2.87814,-6.41485 4.57731,-7.35352 9.22521,-5.09627 11.26927,5.4729 16.31672,12.89612 7.20948,10.6029 -4.11257,-1.03556 -6.37071,-0.006 -8.81926,4.02009 -3.67087,6.03626 -9.59816,30.36706 -12.79763,52.53264 -2.8526,19.76262 -3.92359,35.11509 -4.3716,62.66671 -0.3919,24.10093 -0.307,27.35753 0.73586,28.22303 1.26655,1.0512 3.77488,1.466 23.62419,3.9075 15.20161,1.8698 19.28197,2.0489 26.85872,1.1784 5.22102,-0.5997 5.59227,-0.5524 4.64675,0.5934 -2.66543,3.2299 -18.54337,4.3573 -34.5318,2.4519 -5.82569,-0.6944 -14.67772,-1.4582 -19.67117,-1.6976 -8.593893,-0.412 -9.156011,-0.3492 -10.520283,1.1757 -1.943224,2.172 -3.355705,2.0272 -4.293778,-0.4401 z M 178.6249,993.33899 c -4.61772,-4.26304 -9.33073,-6.47612 -13.09377,-6.1483 -2.49539,0.21737 -2.81788,0.0409 -3.01313,-1.64799 -0.33851,-2.92823 3.63761,-10.1623 5.75015,-10.46172 0.96171,-0.1363 1.90553,-0.65687 2.09738,-1.15681 0.33639,-0.87661 -7.4654,-19.12576 -8.7259,-20.41075 -0.89745,-0.91487 -29.06443,-6.51818 -29.70784,-5.90981 -0.29782,0.2816 -0.73729,2.37919 -0.97656,4.66131 -2.74542,26.18425 -5.82622,40.08703 -8.88313,40.08703 -2.14369,0 -9.64825,-9.61784 -9.64825,-12.36518 0,-1.21139 0.38651,-1.34922 2.6125,-0.93163 2.19412,0.41162 2.79582,0.21036 3.7571,-1.25676 3.38714,-5.16943 6.33643,-31.17979 8.06536,-71.12997 0.85735,-19.81073 0.50855,-29.73278 -1.26336,-35.93726 -0.74071,-2.59362 2.24087,-2.22578 4.19422,0.51745 4.13985,5.81389 4.50453,11.63177 3.06027,48.82252 -0.43289,11.14723 -0.45533,19.16562 -0.0548,19.5662 0.97559,0.97558 22.83955,3.7537 23.59516,2.99808 0.34768,-0.34768 0.19858,-1.47523 -0.33136,-2.50567 -4.68353,-9.10706 -19.42444,-51.61521 -19.42444,-56.01409 0,-1.49497 0.67187,-2.60025 2.27412,-3.74117 2.97169,-2.11602 4.6945,-1.69764 5.56926,1.35248 1.11254,3.87922 11.01695,10.33256 24.68971,16.08689 9.41329,3.96168 10.86492,4.67288 13.50964,6.6188 3.76403,2.76948 4.87753,5.96291 3.58116,10.27046 -1.26746,4.21144 -6.28876,13.33925 -7.33805,13.33925 -0.49139,0 -0.58239,-1.85698 -0.25421,-5.18744 0.72986,-7.40697 -0.36857,-9.33021 -8.17125,-14.30702 -21.0907,-13.45238 -23.79032,-15.03846 -24.45879,-14.37 -1.1213,1.1213 10.46877,33.95811 16.09717,45.60624 1.97092,4.07889 2.3768,4.45528 5.89945,5.47092 5.73569,1.65368 5.93695,1.96038 5.32242,8.11079 -0.29225,2.92497 -0.55552,6.17937 -0.58501,7.232 -0.0618,2.20553 4.30854,9.45369 11.68446,19.37841 3.07862,4.14249 5.14076,7.66295 5.14076,8.77633 0,2.40428 -4.15652,8.1478 -5.86826,8.10884 -0.7256,-0.0167 -3.02159,-1.60161 -5.1022,-3.52243 z m -98.734138,-2.73376 c 0,-0.96063 1.874201,-7.29861 4.164886,-14.08431 2.290693,-6.7857 4.374967,-14.12505 4.631721,-16.30967 0.579505,-4.93065 -0.74096,-9.4714 -2.754312,-9.4714 -0.773402,0 -7.289424,2.213 -14.480044,4.91779 -7.190623,2.70479 -13.327914,4.91779 -13.638424,4.91779 -0.310509,0 -2.458087,0.70846 -4.772385,1.57435 -3.781056,1.41467 -4.589632,2.14018 -7.972506,7.15337 -2.070579,3.06847 -3.764691,5.92206 -3.764691,6.34132 0,0.47226 1.79905,0.61395 4.728647,0.3724 4.994813,-0.41183 8.978073,0.33317 9.456575,1.76869 0.163906,0.4917 -0.950882,1.0851 -2.598744,1.38331 -4.349099,0.78703 -11.379341,4.17301 -17.706837,8.52805 -5.14159,3.53885 -6.049347,3.89845 -9.841116,3.89845 -2.297389,0 -4.795347,-0.45213 -5.551031,-1.00467 -1.275456,-0.93264 -1.109537,-1.24306 2.314291,-4.32954 5.178231,-4.66807 13.123372,-12.86605 14.51376,-14.97564 0.6429,-0.97544 1.253916,-3.45454 1.35781,-5.5091 0.103894,-2.05455 0.826765,-4.83132 1.606363,-6.17059 1.216034,-2.08898 1.89736,-2.46675 4.794432,-2.65831 l 3.376965,-0.22329 8.023258,-11.50375 c 15.895206,-22.79056 27.04042,-39.94718 28.239809,-43.47153 0.672254,-1.9754 1.696063,-4.4428 2.275137,-5.48311 0.938928,-1.68679 1.109666,-1.74505 1.577915,-0.53846 0.79803,2.05637 -0.286079,7.33439 -2.123661,10.33911 -0.902446,1.47564 -5.432701,8.47085 -10.067242,15.5449 -11.624753,17.74377 -21.514412,33.58091 -21.514412,34.45283 0,0.40056 0.425578,0.71654 0.94573,0.70216 3.117767,-0.0861 26.496724,-7.62115 28.04088,-9.03754 0.33811,-0.31013 -0.605615,-1.85782 -2.097151,-3.43931 -1.491544,-1.5815 -2.913784,-3.67983 -3.160537,-4.66297 -0.869526,-3.46447 0.220484,-11.22734 2.317098,-16.502 4.252907,-10.69948 11.313684,-23.97437 13.733344,-25.81993 4.932108,-3.7619 5.449172,-1.44356 1.184394,5.31042 -5.716609,9.05319 -9.403417,18.92706 -9.403417,25.18387 0,4.33141 2.161029,8.39788 6.324743,11.90141 6.270004,5.27587 5.984605,11.56033 -1.471941,32.41158 -2.614465,7.31099 -3.039446,11.16104 -1.232013,11.16104 2.742184,0 0.824124,3.13468 -4.085581,6.67708 -3.952468,2.85179 -5.371713,3.0249 -5.371713,0.6552 z"
       id="path3192"
       inkscape:connector-curvature="0" />
  </g>
</svg>
